#!OML:ASF X:\für Bonn\!DataBase\2005_08_11_Bastian_Final\c3d\Bastian.ASF
:FULLY-SPECIFIED
:DEGREES
581
root -2.42855 1.17938 21.4714 -1001.59 -1.71562 -177.149
lowerback 11.6457 -1.53851 1.64772
upperback 8.04003 -2.68137 1.02123
thorax 1.86811 -1.69207 0.383753
lowerneck -23.6179 -4.11925 -5.43393
upperneck 3.93937 -4.78371 5.37515
head 5.14499 -2.1817 2.04638
rclavicle -4.92986e-014 5.64548e-014
rhumerus -63.0525 56.1691 -108.241
rradius 25.2354
rwrist -14.7727
rhand -13.6418 -3.14235
rfingers 7.12502
rthumb 12.4745 -32.75
lclavicle -4.92986e-014 5.64548e-014
lhumerus -48.5166 -48.7529 103.923
lradius 22.3265
lwrist 30.3682
lhand -10.2515 -1.7566
lfingers 7.12502
lthumb 15.7415 27.6232
rfemur 2.98296 6.7283 24.2928
rtibia 32.1451
rfoot -24.9117 -34.4492
rtoes 4.77494
lfemur 5.5921 2.3216 -13.68
ltibia 21.1644
lfoot 0.793727 3.43443
ltoes -5.81528
582
root -2.42903 1.179 21.4713 -1001.55 -1.71436 -177.132
lowerback 11.5983 -1.54336 1.63664
upperback 8.03907 -2.68871 1.02584
thorax 1.89323 -1.69545 0.393475
lowerneck -23.7558 -4.09254 -5.40126
upperneck 3.87359 -4.75395 5.35749
head 5.14097 -2.16928 2.03777
rclavicle -1.27222e-014 1.69961e-014
rhumerus -63.0104 56.1684 -108.189
rradius 25.2389
rwrist -14.7561
rhand -13.6486 -3.14109
rfingers 7.12502
rthumb 12.4679 -32.7492
lclavicle -1.27222e-014 1.69961e-014
lhumerus -48.4425 -48.7501 103.876
lradius 22.2837
lwrist 30.3572
lhand -10.2398 -1.77487
lfingers 7.12502
lthumb 15.7527 27.6041
rfemur 2.93128 6.70822 24.2788
rtibia 32.1462
rfoot -24.8894 -34.4432
rtoes 4.6497
lfemur 5.53956 2.17608 -13.7277
ltibia 21.1464
lfoot 0.787501 3.42157
ltoes -5.537
583
root -2.42984 1.17904 21.4711 -1001.53 -1.69208 -177.114
lowerback 11.5669 -1.54726 1.63779
upperback 8.0452 -2.69562 1.04711
thorax 1.91767 -1.69964 0.413992
lowerneck -23.8608 -4.06689 -5.39509
upperneck 3.78609 -4.71637 5.32183
head 5.12474 -2.15525 2.02896
rclavicle -1.63003e-014 1.16289e-014
rhumerus -63.0525 56.2153 -108.198
rradius 25.2694
rwrist -14.8016
rhand -13.6162 -3.15461
rfingers 7.12502
rthumb 12.4992 -32.7608
lclavicle -1.63003e-014 1.16289e-014
lhumerus -48.3278 -48.6886 103.804
lradius 22.2308
lwrist 30.2886
lhand -10.2007 -1.82193
lfingers 7.12502
lthumb 15.7904 27.554
rfemur 2.91554 6.66395 24.2853
rtibia 32.1462
rfoot -24.844 -34.4369
rtoes 4.62352
lfemur 5.50583 2.13173 -13.7271
ltibia 21.1458
lfoot 0.85985 3.30116
ltoes -5.25657
584
root -2.43025 1.1786 21.4722 -1001.5 -1.71838 -177.089
lowerback 11.5406 -1.55201 1.60214
upperback 8.0323 -2.70248 1.04078
thorax 1.91909 -1.70277 0.427334
lowerneck -23.9277 -4.03812 -5.3751
upperneck 3.70125 -4.68266 5.30713
head 5.10447 -2.14155 2.02467
rclavicle 2.98177e-014 -1.83876e-014
rhumerus -63.0831 56.2344 -108.211
rradius 25.2864
rwrist -14.7887
rhand -13.5909 -3.15917
rfingers 7.12502
rthumb 12.5235 -32.7639
lclavicle 2.98177e-014 -1.83876e-014
lhumerus -48.2441 -48.6182 103.712
lradius 22.2034
lwrist 30.1966
lhand -10.1755 -1.83031
lfingers 7.12502
lthumb 15.8146 27.5437
rfemur 2.8772 6.627 24.2359
rtibia 32.1426
rfoot -24.8176 -34.4312
rtoes 4.56094
lfemur 5.45047 2.07161 -13.8051
ltibia 21.1546
lfoot 0.907994 3.13868
ltoes -5.55114
585
root -2.43033 1.17854 21.4711 -1001.49 -1.69533 -177.094
lowerback 11.5156 -1.55057 1.6106
upperback 8.04137 -2.70169 1.05151
thorax 1.94242 -1.70268 0.432286
lowerneck -23.9803 -4.01294 -5.36122
upperneck 3.57798 -4.65408 5.29906
head 5.07041 -2.13106 2.02321
rclavicle 0 1.17283e-014
rhumerus -63.0398 56.2298 -108.158
rradius 25.2889
rwrist -14.7699
rhand -13.5895 -3.15045
rfingers 7.12502
rthumb 12.5249 -32.7551
lclavicle 0 1.17283e-014
lhumerus -48.1444 -48.5714 103.626
lradius 22.1585
lwrist 30.1528
lhand -10.1311 -1.89474
lfingers 7.12502
lthumb 15.8574 27.4759
rfemur 2.87106 6.61711 24.2575
rtibia 32.1354
rfoot -24.8575 -34.4155
rtoes 4.62268
lfemur 5.41986 2.09215 -13.7984
ltibia 21.1668
lfoot 1.01538 2.90711
ltoes -5.71035
586
root -2.43077 1.17817 21.4718 -1001.46 -1.69533 -177.063
lowerback 11.4879 -1.56031 1.58987
upperback 8.04405 -2.71777 1.07245
thorax 1.96204 -1.71218 0.465812
lowerneck -24.0408 -3.99018 -5.39105
upperneck 3.45915 -4.61389 5.28241
head 5.03888 -2.11587 2.02713
rclavicle -2.54444e-014 4.77083e-015
rhumerus -63.108 56.3056 -108.184
rradius 25.3294
rwrist -14.8323
rhand -13.5951 -3.16541
rfingers 7.12502
rthumb 12.5195 -32.7704
lclavicle -2.54444e-014 4.77083e-015
lhumerus -48.0345 -48.502 103.566
lradius 22.1131
lwrist 30.0899
lhand -10.1092 -1.91641
lfingers 7.12502
lthumb 15.8785 27.4526
rfemur 2.84421 6.57473 24.2391
rtibia 32.1294
rfoot -24.8253 -34.4103
rtoes 4.59115
lfemur 5.3678 2.09667 -13.8379
ltibia 21.1802
lfoot 1.14417 2.61659
ltoes -6.2257
587
root -2.43109 1.1784 21.4735 -1001.43 -1.71911 -177.05
lowerback 11.453 -1.56439 1.57163
upperback 8.03374 -2.72205 1.05287
thorax 1.96952 -1.71282 0.455004
lowerneck -24.0728 -3.96398 -5.36998
upperneck 3.36099 -4.58734 5.28187
head 5.01016 -2.10521 2.02681
rclavicle -3.33958e-014 2.13694e-014
rhumerus -63.1749 56.3302 -108.259
rradius 25.3543
rwrist -14.8768
rhand -13.6126 -3.20631
rfingers 7.12502
rthumb 12.5026 -32.8123
lclavicle -3.33958e-014 2.13694e-014
lhumerus -47.9172 -48.3792 103.402
lradius 22.0786
lwrist 29.913
lhand -10.0638 -1.9469
lfingers 7.12502
lthumb 15.9222 27.4186
rfemur 2.81937 6.65176 24.2312
rtibia 32.1185
rfoot -24.8783 -34.4947
rtoes 4.54451
lfemur 5.31286 2.01717 -13.9173
ltibia 21.1997
lfoot 1.18382 2.40483
ltoes -6.04284
588
root -2.43126 1.17823 21.4734 -1001.41 -1.70056 -177.052
lowerback 11.4391 -1.56562 1.5677
upperback 8.03107 -2.72495 1.0811
thorax 1.97581 -1.71528 0.486168
lowerneck -24.0665 -3.93261 -5.39092
upperneck 3.21129 -4.53973 5.25586
head 4.95835 -2.08777 2.02802
rclavicle 5.1684e-015 -6.85807e-015
rhumerus -63.1646 56.343 -108.194
rradius 25.3555
rwrist -14.8423
rhand -13.5988 -3.17189
rfingers 7.12502
rthumb 12.5159 -32.7771
lclavicle 5.1684e-015 -6.85807e-015
lhumerus -47.8928 -48.3536 103.428
lradius 22.0494
lwrist 29.8873
lhand -10.0833 -1.97079
lfingers 7.12502
lthumb 15.9034 27.3962
rfemur 2.80926 6.61941 24.2392
rtibia 32.1109
rfoot -24.8655 -34.476
rtoes 4.57128
lfemur 5.28895 1.99428 -13.9348
ltibia 21.2121
lfoot 1.26955 2.14298
ltoes -6.0701
589
root -2.43152 1.17721 21.474 -1001.38 -1.72242 -177.028
lowerback 11.4095 -1.56825 1.54477
upperback 8.02824 -2.72914 1.06917
thorax 1.98898 -1.71695 0.485868
lowerneck -24.0952 -3.90592 -5.35964
upperneck 3.09173 -4.5131 5.22777
head 4.92123 -2.07945 2.0174
rclavicle -8.34896e-015 3.66758e-014
rhumerus -63.2024 56.3705 -108.243
rradius 25.3682
rwrist -14.8619
rhand -13.621 -3.16879
rfingers 7.12502
rthumb 12.4945 -32.7753
lclavicle -8.34896e-015 3.66758e-014
lhumerus -47.8198 -48.3359 103.359
lradius 22.0102
lwrist 29.8429
lhand -10.0721 -1.98985
lfingers 7.12502
lthumb 15.9142 27.3763
rfemur 2.76671 6.55589 24.1799
rtibia 32.0991
rfoot -24.8577 -34.4081
rtoes 4.68717
lfemur 5.22739 1.94669 -14.0086
ltibia 21.2239
lfoot 1.36183 1.91843
ltoes -6.07909
590
root -2.43149 1.17727 21.474 -1001.36 -1.69936 -177.033
lowerback 11.3828 -1.56937 1.56122
upperback 8.0432 -2.73222 1.0818
thorax 2.01929 -1.719 0.488421
lowerneck -24.1419 -3.87949 -5.3631
upperneck 2.98385 -4.47581 5.20081
head 4.89058 -2.06591 2.01358
rclavicle -1.82882e-014 1.75924e-014
rhumerus -63.2132 56.4328 -108.24
rradius 25.396
rwrist -14.878
rhand -13.5969 -3.18034
rfingers 7.12502
rthumb 12.5178 -32.7854
lclavicle -1.82882e-014 1.75924e-014
lhumerus -47.7098 -48.2923 103.279
lradius 21.9671
lwrist 29.7919
lhand -10.0611 -2.00879
lfingers 7.12502
lthumb 15.9248 27.3565
rfemur 2.75753 6.55013 24.2026
rtibia 32.0863
rfoot -24.846 -34.4404
rtoes 4.6121
lfemur 5.19474 1.86091 -14.0383
ltibia 21.2436
lfoot 1.43066 1.75164
ltoes -6.31783
591
root -2.43128 1.17677 21.4754 -1001.33 -1.70334 -177.02
lowerback 11.3505 -1.57201 1.53909
upperback 8.04149 -2.73737 1.08607
thorax 2.03592 -1.72192 0.504355
lowerneck -24.1406 -3.84722 -5.35207
upperneck 2.842 -4.43968 5.19369
head 4.84269 -2.05235 2.01438
rclavicle 3.97569e-016 1.0635e-014
rhumerus -63.2416 56.473 -108.266
rradius 25.4159
rwrist -14.9181
rhand -13.6066 -3.21658
rfingers 7.12502
rthumb 12.5084 -32.8222
lclavicle 3.97569e-016 1.0635e-014
lhumerus -47.6192 -48.2187 103.189
lradius 21.9358
lwrist 29.7054
lhand -10.0503 -2.02864
lfingers 7.12502
lthumb 15.9352 27.3358
rfemur 2.72779 6.51297 24.1825
rtibia 32.0759
rfoot -24.8831 -34.4095
rtoes 4.76296
lfemur 5.13996 1.8365 -14.0821
ltibia 21.2552
lfoot 1.48879 1.56517
ltoes -6.55914
592
root -2.43164 1.17682 21.476 -1001.31 -1.67954 -177.017
lowerback 11.3382 -1.57876 1.57127
upperback 8.02423 -2.74148 1.09039
thorax 2.02329 -1.72173 0.491256
lowerneck -24.1008 -3.82162 -5.35374
upperneck 2.70831 -4.40686 5.16881
head 4.79182 -2.04147 2.01145
rclavicle -6.36111e-015 5.66536e-015
rhumerus -63.3194 56.4887 -108.333
rradius 25.4366
rwrist -14.9363
rhand -13.5849 -3.25277
rfingers 7.12502
rthumb 12.5294 -32.8571
lclavicle -6.36111e-015 5.66536e-015
lhumerus -47.5596 -48.1376 103.131
lradius 21.889
lwrist 29.6196
lhand -10.0327 -2.04759
lfingers 7.12502
lthumb 15.9522 27.3155
rfemur 2.70597 6.48521 24.1956
rtibia 32.059
rfoot -24.8241 -34.4274
rtoes 4.61763
lfemur 5.08887 1.77549 -14.112
ltibia 21.2809
lfoot 1.54125 1.4177
ltoes -6.90562
593
root -2.43182 1.17686 21.4764 -1001.29 -1.70837 -177.01
lowerback 11.3191 -1.57508 1.5208
upperback 8.03727 -2.74304 1.10346
thorax 2.04999 -1.72541 0.531886
lowerneck -24.1296 -3.80739 -5.3893
upperneck 2.59964 -4.37707 5.14483
head 4.7595 -2.03171 2.01297
rclavicle -5.1684e-015 1.14301e-014
rhumerus -63.4494 56.602 -108.42
rradius 25.4949
rwrist -15.0227
rhand -13.6133 -3.26742
rfingers 7.12502
rthumb 12.502 -32.8734
lclavicle -5.1684e-015 1.14301e-014
lhumerus -47.398 -47.9941 102.982
lradius 21.8748
lwrist 29.4674
lhand -10.015 -2.05201
lfingers 7.12502
lthumb 15.9692 27.3097
rfemur 2.70716 6.5093 24.1621
rtibia 32.0449
rfoot -24.9191 -34.4139
rtoes 4.70793
lfemur 5.04481 1.74354 -14.1893
ltibia 21.3047
lfoot 1.59712 1.24481
ltoes -7.20042
